<?xml version="1.0" encoding="UTF-8" standalone="no"?>
<!-- Created with Inkscape (http://www.inkscape.org/) -->

<svg
   width="210mm"
   height="297mm"
   viewBox="0 0 210 297"
   version="1.1"
   id="svg5"
   xml:space="preserve"
   sodipodi:docname="womanor.svg"
   inkscape:version="1.2.2 (b0a8486541, 2022-12-01)"
   xmlns:inkscape="http://www.inkscape.org/namespaces/inkscape"
   xmlns:sodipodi="http://sodipodi.sourceforge.net/DTD/sodipodi-0.dtd"
   xmlns="http://www.w3.org/2000/svg"
   xmlns:svg="http://www.w3.org/2000/svg"><sodipodi:namedview
     id="namedview7"
     pagecolor="#ffffff"
     bordercolor="#000000"
     borderopacity="0.25"
     inkscape:showpageshadow="2"
     inkscape:pageopacity="0.0"
     inkscape:pagecheckerboard="0"
     inkscape:deskcolor="#d1d1d1"
     inkscape:document-units="mm"
     showgrid="false"
     inkscape:zoom="1.0129245"
     inkscape:cx="309.00625"
     inkscape:cy="343.55966"
     inkscape:window-width="1920"
     inkscape:window-height="991"
     inkscape:window-x="-9"
     inkscape:window-y="-9"
     inkscape:window-maximized="1"
     inkscape:current-layer="Layer_1" /><defs
     id="defs2" /><g
     inkscape:label="Layer 1"
     inkscape:groupmode="layer"
     id="layer1"><g
       id="Layer_1"
       transform="matrix(0.26457583,0.0019915,-0.0019915,0.26457583,49.978812,35.407588)"
       inkscape:transform-center-x="24.043933"
       inkscape:transform-center-y="-33.349011"><path
         d="m 55.277,141.054 c 0,0 -45,35.247 -47.25,81.752 -2.25,46.498 87.004,67.493 125.254,68.998 l -27.752,10.497 c 0,0 28.498,14.998 77.998,16.503 49.5,1.497 107.254,-14.998 107.254,-14.998 l 31.5,-29.25 c 0,0 25.496,-3.755 20.996,-27 -4.5,-23.252 -5.253,-39.755 -17.248,-40.5 -12.002,-0.752 -37.498,5.245 -37.498,5.245 0,0 -102.754,-95.997 -125.254,-125.247 0,0 -78.75,50.997 -108,54"
         fill="#cb9a78"
         id="path50" /><path
         d="m 84.527,310.556 c 0,0 -31.5,12.748 -30.748,23.998 0.752,11.25 -5.252,75.747 -5.252,75.747 l 32.252,-10.497 c 0,0 9.752,-12.748 10.498,-30.003 0.752,-17.247 -6.75,-59.245 -6.75,-59.245"
         fill="#cb9a78"
         id="path52" /><path
         d="m 358.281,359.304 c 0,0 -22.5,39.002 -29.25,44.247 -6.75,5.253 -21.002,24.75 -26.254,42.75 -5.246,18 -12.748,51.75 -12.748,51.75 h 66.748 c 0,0 14.252,-87.75 1.504,-138.747"
         fill="#cb9a78"
         id="path54" /><path
         d="m 32.777,162.801 23.252,-24.75 c 0,0 3.002,1.505 34.502,-10.497 31.5,-12.003 68.246,-40.5 68.246,-40.5 0,0 102.002,117 135.752,123.75 0,0 31.5,-6.75 40.5,3.002 0,0 -16.502,-82.505 -57.002,-122.252 C 237.527,51.806 188.779,27.056 113.031,51.806 37.277,76.556 32.777,162.801 32.777,162.801"
         fill="#595a59"
         id="path56" /><path
         d="m 24.529,177.054 7.502,-10.498 c 0,0 2.25,-27.007 6.75,-37.505 4.5,-10.497 31.5,-88.495 131.998,-88.495 100.498,0 149.252,108.745 158.252,137.995 9,29.25 13.5,56.25 13.5,56.25 0,0 -1.504,20.25 -7.502,32.253 -5.998,12.002 -12.748,7.502 -12.748,7.502 0,0 -75.754,82.498 -154.504,104.998 -78.75,22.5 -127.498,29.25 -127.498,29.25 l -1.498,90.752 251.248,-1.505 c 0,0 7.502,-68.245 31.5,-90.745 23.998,-22.5 48.748,-75.755 56.25,-127.505 7.502,-51.75 26.023,-172.167 -54.752,-234.745 -83.25,-64.505 -236.25,-35.255 -266.998,2.995 -30.748,38.25 -45,87.75 -31.5,129.003"
         fill="#4fb79d"
         id="path58"
         style="fill:#ff6600" /><path
         d="m 128.781,292.556 c 0,0 -98.254,-17.255 -105.004,-31.5 0,0 -19.498,131.245 24.75,149.245 0,0 -5.998,-68.997 9,-81 15.004,-11.995 71.254,-36.745 71.254,-36.745"
         fill="#4fb79d"
         id="path60" /><path
         d="m 102.527,301.556 c 0,0 2.25,17.248 71.254,18.745 68.998,1.505 114.75,-11.25 114.75,-11.25 0,0 -82.511,65.25 -120.754,70.503 -38.25,5.252 -86.998,20.25 -86.998,20.25 0,0 14.252,-24.75 12.002,-41.998 -2.25,-17.255 -8.254,-47.25 -8.254,-47.25 l 18,-9"
         fill="#3d79ac"
         id="path62"
         style="fill:#800080" /><path
         d="m 88.281,307.554 c 0,0 14.998,50.245 172.498,22.5"
         fill-opacity="0"
         stroke="#d0ba6c"
         stroke-width="9"
         id="path64" /><path
         d="m 385.281,238.556 c 0,0 -107.254,175.5 -345.754,194.245 m 315.752,-74.25 c 0,0 -121.5,122.253 -256.5,140.253"
         fill-opacity="0"
         stroke="#e67b9d"
         stroke-width="9"
         id="path66" /><path
         d="m 91.333,192.101 c 0,14.836 -7.341,26.859 -16.411,26.859 -9.07,0 -16.418,-12.023 -16.418,-26.859 0,-14.829 7.348,-26.86 16.418,-26.86 9.07,0 16.411,12.031 16.411,26.86"
         fill="#563e26"
         id="path68" /><path
         d="m 248.903,206.43 c 0,14.829 -7.347,26.853 -16.418,26.853 -9.063,0 -16.411,-12.024 -16.411,-26.853 0,-14.836 7.348,-26.859 16.411,-26.859 9.071,0 16.418,12.023 16.418,26.859"
         fill="#563e26"
         id="path70" /><path
         d="m 156.984,200.454 c 0,0 -20.419,-5.611 -25.066,6.567 -4.775,12.537 7.164,21.487 22.084,20.292 m -44.12899,20.65001 c 0,0 17.86799,10.38599 41.14799,12.17899 21.129,1.624 36.27619,-10.9809 36.27619,-10.9809 M 62.85,152.297 c 0,0 1.195,10.744 12.529,18.506 m 136.955,-10.167 c 0,0 0.598,12.536 13.134,22.085 m 63.724,28.484 c 19.371,2.664 44.466,-22.093 51.624,22.971 8.297,52.179 -53.719,41.181 -53.719,41.181 -91.315,24.174 -233.367,25.967 -270.372,-26.556 -32.288,-45.823 38.004,-108.64 38.004,-108.64 0,0 72.175,-19.357 105.925,-54.232 0,0 52.875,66.375 128.538,125.276 z M 30.154,162.429 c 0,0 11.25,-122.625 144,-119.25 132.75,3.375 162,169.312 162,169.312 m -201.375,78.75 c 0,0 -75.375,18.563 -81,48.938 -5.625,30.375 -4.5,67.5 -4.5,67.5 m 274.5,-135 c 0,0 -43.875,57.375 -133.875,95.625 -54.246,23.048 -148.5,42.75 -148.5,42.75 l -4.5,88.875 250.875,0 c 4.5,0 5.625,-69.75 36,-93.375 30.375,-23.625 51.75,-91.125 57.375,-140.625 5.625,-49.5 29.25,-261 -187.875,-258.75 -217.125,2.25 -171,173.25 -171,173.25 m 335.25,176.625 c 0,0 11.25,67.5 2.25,140.625 l -72,0"
         fill-opacity="0"
         stroke="#563e26"
         stroke-width="9"
         stroke-linecap="round"
         stroke-linejoin="round"
         id="path72"
         sodipodi:nodetypes="ccccccccccccccccccsccscccccsssscccc" /><path
         d="m 164.029,131.21 c 0,8.853 -4.282,16.031 -9.562,16.031 -5.288,0 -9.563,-7.178 -9.563,-16.031 0,-8.859 4.275,-16.031 9.563,-16.031 5.28,0 9.562,7.172 9.562,16.031"
         fill="#df5356"
         id="path74" /><path
         d="m 308.029,258.335 c 0,4.5 -3.783,8.156 -8.437,8.156 -4.662,0 -8.438,-3.656 -8.438,-8.156 0,-4.507 3.776,-8.156 8.438,-8.156 4.654,0 8.437,3.649 8.437,8.156"
         fill="#e9d34a"
         id="path76" /><path
         d="m 298.467,283.366 -21.375,47.813 h 34.312 l -12.937,-47.813"
         fill="#e9d34a"
         id="path78" /><path
         d="M 35.217,283.366 13.842,331.179 H 48.154 L 35.217,283.366"
         fill="#e9d34a"
         id="path80" /><path
         d="m 164.029,131.21 c 0,8.853 -4.282,16.031 -9.562,16.031 -5.288,0 -9.563,-7.178 -9.563,-16.031 0,-8.859 4.275,-16.031 9.563,-16.031 5.28,0 9.562,7.172 9.562,16.031 z m 144,127.125 c 0,4.5 -3.783,8.156 -8.437,8.156 -4.662,0 -8.438,-3.656 -8.438,-8.156 0,-4.507 3.776,-8.156 8.438,-8.156 4.654,0 8.437,3.649 8.437,8.156 z m -206.437,43.594 c 0,0 42.187,37.125 185.625,7.312 m -200.813,1.688 c 0,0 15.188,69.187 -5.062,89.437 M 25.654,261.429 c 0,0 -23.625,108 18,147.375 m 254.813,-125.438 -21.375,47.813 h 34.312 z m -263.25,0 -21.375,47.813 h 34.312 z"
         fill-opacity="0"
         stroke="#563e26"
         stroke-width="9"
         stroke-linecap="round"
         stroke-linejoin="round"
         id="path82" /></g></g></svg>
